<?xml version="1.0" encoding="utf-8"?>
<!-- Generator: Adobe Illustrator 23.0.6, SVG Export Plug-In . SVG Version: 6.00 Build 0)  -->
<svg version="1.1" id="Layer_1" xmlns="http://www.w3.org/2000/svg" xmlns:xlink="http://www.w3.org/1999/xlink" x="0px" y="0px"
	 viewBox="0 0 47 51" style="enable-background:new 0 0 47 51;" xml:space="preserve">
<style type="text/css">
	.st0{clip-path:url(#SVGID_2_);fill:none;stroke:#000000;}
	.st1{clip-path:url(#SVGID_2_);}
</style>
<g>
	<defs>
		<rect id="SVGID_1_" x="3.89" y="4.89" width="40.26" height="40.26"/>
	</defs>
	<clipPath id="SVGID_2_">
		<use xlink:href="#SVGID_1_"  style="overflow:visible;"/>
	</clipPath>
	<circle class="st0" cx="24.02" cy="25.02" r="19.63"/>
	<path class="st0" d="M10.28,24.71c0,7.59,6.15,13.74,13.74,13.74s13.74-6.15,13.74-13.74"/>
	<path class="st1" d="M15.95,20.59c1.5,0,2.72-1.22,2.72-2.72c0-1.5-1.22-2.72-2.72-2.72s-2.72,1.22-2.72,2.72
		C13.23,19.38,14.45,20.59,15.95,20.59"/>
	<path class="st1" d="M32.08,20.59c1.5,0,2.72-1.22,2.72-2.72c0-1.5-1.22-2.72-2.72-2.72c-1.5,0-2.72,1.22-2.72,2.72
		C29.37,19.38,30.58,20.59,32.08,20.59"/>
</g>
</svg>
